<svg xmlns="http://www.w3.org/2000/svg" xmlns:xlink="http://www.w3.org/1999/xlink" xmlns:lucid="lucid" width="640" height="847.33"><g transform="translate(-480 -120)" lucid:page-tab-id="0_0"><path d="M862.67 342.67c17.67 0 32 17.9 32 40s-14.33 40-32 40h-96c-17.68 0-32-17.9-32-40s14.32-40 32-40z" stroke="#363636" fill="#f6ff00"/><use xlink:href="#a" transform="matrix(1,0,0,1,739.666666666667,347.66666666666674) translate(22.00617283950617 39.65277777777778)"/><path d="M682.67 485.33c17.67 0 32 17.9 32 40s-14.33 40-32 40h-96c-17.68 0-32-17.9-32-40s14.32-40 32-40z" stroke="#363636" fill="#f6ff00"/><use xlink:href="#b" transform="matrix(1,0,0,1,559.666666666667,490.3333333333335) translate(10.864197530864189 39.65277777777778)"/><use xlink:href="#c" transform="matrix(1,0,0,1,559.666666666667,490.3333333333335) translate(56.481481481481474 39.65277777777778)"/><use xlink:href="#d" transform="matrix(1,0,0,1,559.666666666667,490.3333333333335) translate(114.44444444444444 39.65277777777778)"/><path d="M862.67 485.33c17.67 0 32 17.9 32 40s-14.33 40-32 40h-96c-17.68 0-32-17.9-32-40s14.32-40 32-40z" stroke="#363636" fill="#f6ff00"/><use xlink:href="#b" transform="matrix(1,0,0,1,739.666666666667,490.3333333333335) translate(10.864197530864189 39.65277777777778)"/><use xlink:href="#c" transform="matrix(1,0,0,1,739.666666666667,490.3333333333335) translate(56.481481481481474 39.65277777777778)"/><use xlink:href="#e" transform="matrix(1,0,0,1,739.666666666667,490.3333333333335) translate(114.44444444444444 39.65277777777778)"/><path d="M1042.67 485.33c17.67 0 32 17.9 32 40s-14.33 40-32 40h-96c-17.68 0-32-17.9-32-40s14.32-40 32-40z" stroke="#363636" fill="#f6ff00"/><use xlink:href="#b" transform="matrix(1,0,0,1,919.666666666667,490.3333333333335) translate(10.864197530864189 39.65277777777778)"/><use xlink:href="#c" transform="matrix(1,0,0,1,919.666666666667,490.3333333333335) translate(56.481481481481474 39.65277777777778)"/><use xlink:href="#f" transform="matrix(1,0,0,1,919.666666666667,490.3333333333335) translate(114.44444444444444 39.65277777777778)"/><path d="M634.67 484.33V460a6 6 0 0 1 6-6h168a6 6 0 0 0 6-6v-8.45" stroke="#363636" fill="none"/><path d="M635.17 484.83h-1v-.5h1z" stroke="#363636" stroke-width=".05" fill="#363636"/><path d="M814.67 424.8l4.63 14.25h-9.27z" stroke="#363636" fill="#363636"/><path d="M814.67 484.33v-44.78" stroke="#363636" fill="none"/><path d="M815.17 484.83h-1v-.5h1z" stroke="#363636" stroke-width=".05" fill="#363636"/><path d="M814.67 424.8l4.63 14.25h-9.27z" stroke="#363636" fill="#363636"/><path d="M994.67 484.33V460a6 6 0 0 0-6-6h-168a6 6 0 0 1-6-6v-8.45" stroke="#363636" fill="none"/><path d="M995.17 484.83h-1v-.5h1z" stroke="#363636" stroke-width=".05" fill="#363636"/><path d="M814.67 424.8l4.63 14.25h-9.27z" stroke="#363636" fill="#363636"/><path d="M915.67 250c-11.6 0-21-8.95-21-20 0-8.84 5.68-16.3 14.5-19.02-.5-25.98 34.5-30.98 48.5-20.98 7-15 42-10 42 5 21-5 42 15 28 40 14 20 0 45-28 35-7 13-35 13-42 0-14 10-42 5-42-20z" stroke="#363636" fill="#f6ff00"/><use xlink:href="#g" transform="matrix(1,0,0,1,899.666666666667,185) translate(14.665493827160498 48.71527777777778)"/><use xlink:href="#h" transform="matrix(1,0,0,1,899.666666666667,185) translate(79.54203703703703 48.71527777777778)"/><path d="M720 268c0 6.63-26.86 12-60 12s-60-5.37-60-12v-96c0-6.63 26.86-12 60-12s60 5.37 60 12z" stroke="#363636" fill="#f6ff00"/><path d="M720 172c0 6.63-26.86 12-60 12s-60-5.37-60-12" stroke="#363636" fill="none"/><use xlink:href="#i" transform="matrix(1,0,0,1,605,189) translate(7.5 47.34027777777778)"/><path d="M814.67 341.67V317.2a6 6 0 0 1 6-6h152.07a6 6 0 0 0 6-6v-8.57" stroke="#363636" fill="none"/><path d="M815.17 342.17h-1v-.52h1z" stroke="#363636" stroke-width=".05" fill="#363636"/><path d="M978.74 281.86l4.63 14.27h-9.27z" stroke="#363636" fill="#363636"/><path d="M814.67 341.67v-24.34a6 6 0 0 0-6-6H666a6 6 0 0 1-6-6v-8.45" stroke="#363636" fill="none"/><path d="M815.17 342.17h-1v-.52h1z" stroke="#363636" stroke-width=".05" fill="#363636"/><path d="M660 282.12l4.63 14.26h-9.26z" stroke="#363636" fill="#363636"/><path d="M862.67 666.67c17.67 0 32 17.9 32 40s-14.33 40-32 40h-96c-17.68 0-32-17.9-32-40s14.32-40 32-40z" stroke="#363636" fill="#f6ff00"/><use xlink:href="#j" transform="matrix(1,0,0,1,739.666666666667,671.6666666666665) translate(21.018518518518512 39.65277777777778)"/><path d="M814.67 665.67V622a6 6 0 0 0-6-6h-168a6 6 0 0 1-6-6v-27.78" stroke="#363636" fill="none"/><path d="M815.17 666.17h-1v-.52h1z" stroke="#363636" stroke-width=".05" fill="#363636"/><path d="M634.67 567.45l4.63 14.27h-9.27z" stroke="#363636" fill="#363636"/><path d="M814.67 665.67v-83.45" stroke="#363636" fill="none"/><path d="M815.17 666.17h-1v-.52h1z" stroke="#363636" stroke-width=".05" fill="#363636"/><path d="M814.67 567.45l4.63 14.27h-9.27z" stroke="#363636" fill="#363636"/><path d="M814.67 665.67V622a6 6 0 0 1 6-6h168a6 6 0 0 0 6-6v-27.78" stroke="#363636" fill="none"/><path d="M815.17 666.17h-1v-.52h1z" stroke="#363636" stroke-width=".05" fill="#363636"/><path d="M994.67 567.45l4.63 14.27h-9.27z" stroke="#363636" fill="#363636"/><path d="M910.67 804c35.34 0 64 26.12 64 58.33 0 32.22-28.66 58.34-64 58.34h-192c-35.35 0-64-26.12-64-58.34 0-32.2 28.65-58.33 64-58.33z" stroke="#363636" fill="#f6ff00"/><use xlink:href="#k" transform="matrix(1,0,0,1,659.666666666667,808.9999999999999) translate(9.480308641975293 44.52777777777778)"/><use xlink:href="#l" transform="matrix(1,0,0,1,659.666666666667,808.9999999999999) translate(110.52969135802468 44.52777777777778)"/><use xlink:href="#m" transform="matrix(1,0,0,1,659.666666666667,808.9999999999999) translate(122.87537037037036 44.52777777777778)"/><use xlink:href="#n" transform="matrix(1,0,0,1,659.666666666667,808.9999999999999) translate(205.59141975308643 44.52777777777778)"/><use xlink:href="#o" transform="matrix(1,0,0,1,659.666666666667,808.9999999999999) translate(119.85067901234568 71.19444444444446)"/><path d="M814.67 803v-39.45" stroke="#363636" fill="none"/><path d="M815.17 803.5h-1v-.5h1z" stroke="#363636" stroke-width=".05" fill="#363636"/><path d="M814.67 748.8l4.63 14.25h-9.27z" stroke="#363636" fill="#363636"/><path d="M500 380V146a6 6 0 0 1 6-6h35.67v240zM500 380h41.67v266.67H500z" stroke="#363636" fill="#f6ff00"/><path d="M541.67 947.33H506a6 6 0 0 1-6-6V646.67h41.67z" stroke="#363636" fill="#f6ff00"/><path d="M541.67 140H1094a6 6 0 0 1 6 6v234H541.67zM541.67 380H1100v266.67H541.67z" stroke="#363636" fill="none"/><path d="M1100 646.67v294.66a6 6 0 0 1-6 6H541.67V646.67z" stroke="#363636" fill="none"/><g><use xlink:href="#p" transform="matrix(-1.8369701987210297e-16,-1,1,-1.8369701987210297e-16,500.0000000000001,380.00000000000006) translate(65.74074074074075 25.444444444444443)"/><use xlink:href="#q" transform="matrix(-1.8369701987210297e-16,-1,1,-1.8369701987210297e-16,500.0000000000001,380.00000000000006) translate(118.76543209876544 25.444444444444443)"/></g><g><use xlink:href="#r" transform="matrix(-1.8369701987210297e-16,-1,1,-1.8369701987210297e-16,500.00000000000017,646.6666666666663) translate(64.48765432098766 25.444444444444443)"/><use xlink:href="#q" transform="matrix(-1.8369701987210297e-16,-1,1,-1.8369701987210297e-16,500.00000000000017,646.6666666666663) translate(147.01851851851853 25.444444444444443)"/></g><g><use xlink:href="#s" transform="matrix(-1.8369701987210297e-16,-1,1,-1.8369701987210297e-16,500.0000000000001,947.333333333333) translate(37.043209876543216 25.444444444444443)"/><use xlink:href="#l" transform="matrix(-1.8369701987210297e-16,-1,1,-1.8369701987210297e-16,500.0000000000001,947.333333333333) translate(65.37654320987654 25.444444444444443)"/><use xlink:href="#t" transform="matrix(-1.8369701987210297e-16,-1,1,-1.8369701987210297e-16,500.0000000000001,947.333333333333) translate(77.72222222222223 25.444444444444443)"/><use xlink:href="#q" transform="matrix(-1.8369701987210297e-16,-1,1,-1.8369701987210297e-16,500.0000000000001,947.333333333333) translate(208.46296296296296 25.444444444444443)"/></g><defs><path fill="#363636" d="M233-177c-1 41-23 64-60 70L243 0h-38l-65-103H63V0H30v-248c88 3 205-21 203 71zM63-129c60-2 137 13 137-47 0-61-80-42-137-45v92" id="u"/><path fill="#363636" d="M100-194c63 0 86 42 84 106H49c0 40 14 67 53 68 26 1 43-12 49-29l28 8c-11 28-37 45-77 45C44 4 14-33 15-96c1-61 26-98 85-98zm52 81c6-60-76-77-97-28-3 7-6 17-6 28h103" id="v"/><path fill="#363636" d="M115-194c55 1 70 41 70 98S169 2 115 4C84 4 66-9 55-30l1 105H24l-1-265h31l2 30c10-21 28-34 59-34zm-8 174c40 0 45-34 45-75s-6-73-45-74c-42 0-51 32-51 76 0 43 10 73 51 73" id="w"/><path fill="#363636" d="M100-194c62-1 85 37 85 99 1 63-27 99-86 99S16-35 15-95c0-66 28-99 85-99zM99-20c44 1 53-31 53-75 0-43-8-75-51-75s-53 32-53 75 10 74 51 75" id="x"/><path fill="#363636" d="M135-143c-3-34-86-38-87 0 15 53 115 12 119 90S17 21 10-45l28-5c4 36 97 45 98 0-10-56-113-15-118-90-4-57 82-63 122-42 12 7 21 19 24 35" id="y"/><path fill="#363636" d="M24-231v-30h32v30H24zM24 0v-190h32V0H24" id="z"/><path fill="#363636" d="M59-47c-2 24 18 29 38 22v24C64 9 27 4 27-40v-127H5v-23h24l9-43h21v43h35v23H59v120" id="A"/><path fill="#363636" d="M114-163C36-179 61-72 57 0H25l-1-190h30c1 12-1 29 2 39 6-27 23-49 58-41v29" id="B"/><path fill="#363636" d="M179-190L93 31C79 59 56 82 12 73V49c39 6 53-20 64-50L1-190h34L92-34l54-156h33" id="C"/><g id="a"><use transform="matrix(0.06172839506172839,0,0,0.06172839506172839,0,0)" xlink:href="#u"/><use transform="matrix(0.06172839506172839,0,0,0.06172839506172839,15.987654320987653,0)" xlink:href="#v"/><use transform="matrix(0.06172839506172839,0,0,0.06172839506172839,28.333333333333332,0)" xlink:href="#w"/><use transform="matrix(0.06172839506172839,0,0,0.06172839506172839,40.67901234567901,0)" xlink:href="#x"/><use transform="matrix(0.06172839506172839,0,0,0.06172839506172839,53.02469135802469,0)" xlink:href="#y"/><use transform="matrix(0.06172839506172839,0,0,0.06172839506172839,64.1358024691358,0)" xlink:href="#z"/><use transform="matrix(0.06172839506172839,0,0,0.06172839506172839,69.01234567901234,0)" xlink:href="#A"/><use transform="matrix(0.06172839506172839,0,0,0.06172839506172839,75.18518518518518,0)" xlink:href="#x"/><use transform="matrix(0.06172839506172839,0,0,0.06172839506172839,87.53086419753086,0)" xlink:href="#B"/><use transform="matrix(0.06172839506172839,0,0,0.06172839506172839,94.87654320987654,0)" xlink:href="#C"/></g><path fill="#363636" d="M232-93c-1 65-40 97-104 97C67 4 28-28 28-90v-158h33c8 89-33 224 67 224 102 0 64-133 71-224h33v155" id="D"/><g id="b"><use transform="matrix(0.06172839506172839,0,0,0.06172839506172839,0,0)" xlink:href="#D"/><use transform="matrix(0.06172839506172839,0,0,0.06172839506172839,15.987654320987653,0)" xlink:href="#y"/><use transform="matrix(0.06172839506172839,0,0,0.06172839506172839,27.098765432098766,0)" xlink:href="#v"/></g><path fill="#363636" d="M212-179c-10-28-35-45-73-45-59 0-87 40-87 99 0 60 29 101 89 101 43 0 62-24 78-52l27 14C228-24 195 4 139 4 59 4 22-46 18-125c-6-104 99-153 187-111 19 9 31 26 39 46" id="E"/><path fill="#363636" d="M141-36C126-15 110 5 73 4 37 3 15-17 15-53c-1-64 63-63 125-63 3-35-9-54-41-54-24 1-41 7-42 31l-33-3c5-37 33-52 76-52 45 0 72 20 72 64v82c-1 20 7 32 28 27v20c-31 9-61-2-59-35zM48-53c0 20 12 33 32 33 41-3 63-29 60-74-43 2-92-5-92 41" id="F"/><g id="c"><use transform="matrix(0.06172839506172839,0,0,0.06172839506172839,0,0)" xlink:href="#E"/><use transform="matrix(0.06172839506172839,0,0,0.06172839506172839,15.987654320987653,0)" xlink:href="#F"/><use transform="matrix(0.06172839506172839,0,0,0.06172839506172839,28.333333333333332,0)" xlink:href="#y"/><use transform="matrix(0.06172839506172839,0,0,0.06172839506172839,39.44444444444444,0)" xlink:href="#v"/></g><path fill="#363636" d="M158-156l-14 65h45v19h-49L124 0h-19l15-72H56L41 0H22l15-72H2v-19h39l14-65H11v-19h48l15-71h20l-16 71h64l16-71h19l-16 71h37v19h-40zm-83 0L61-91h63l14-65H75" id="G"/><path fill="#363636" d="M27 0v-27h64v-190l-56 39v-29l58-41h29v221h61V0H27" id="H"/><g id="d"><use transform="matrix(0.06172839506172839,0,0,0.06172839506172839,0,0)" xlink:href="#G"/><use transform="matrix(0.06172839506172839,0,0,0.06172839506172839,12.345679012345679,0)" xlink:href="#H"/></g><path fill="#363636" d="M101-251c82-7 93 87 43 132L82-64C71-53 59-42 53-27h129V0H18c2-99 128-94 128-182 0-28-16-43-45-43s-46 15-49 41l-32-3c6-41 34-60 81-64" id="I"/><g id="e"><use transform="matrix(0.06172839506172839,0,0,0.06172839506172839,0,0)" xlink:href="#G"/><use transform="matrix(0.06172839506172839,0,0,0.06172839506172839,12.345679012345679,0)" xlink:href="#I"/></g><path fill="#363636" d="M126-127c33 6 58 20 58 59 0 88-139 92-164 29-3-8-5-16-6-25l32-3c6 27 21 44 54 44 32 0 52-15 52-46 0-38-36-46-79-43v-28c39 1 72-4 72-42 0-27-17-43-46-43-28 0-47 15-49 41l-32-3c6-42 35-63 81-64 48-1 79 21 79 65 0 36-21 52-52 59" id="J"/><g id="f"><use transform="matrix(0.06172839506172839,0,0,0.06172839506172839,0,0)" xlink:href="#G"/><use transform="matrix(0.06172839506172839,0,0,0.06172839506172839,12.345679012345679,0)" xlink:href="#J"/></g><path fill="#363636" d="M30 0v-248h187v28H63v79h144v27H63v87h162V0H30" id="K"/><path fill="#363636" d="M185-189c-5-48-123-54-124 2 14 75 158 14 163 119 3 78-121 87-175 55-17-10-28-26-33-46l33-7c5 56 141 63 141-1 0-78-155-14-162-118-5-82 145-84 179-34 5 7 8 16 11 25" id="L"/><path fill="#363636" d="M127-220V0H93v-220H8v-28h204v28h-85" id="M"/><g id="g"><use transform="matrix(0.06172839506172839,0,0,0.06172839506172839,0,0)" xlink:href="#u"/><use transform="matrix(0.06172839506172839,0,0,0.06172839506172839,15.987654320987653,0)" xlink:href="#K"/><use transform="matrix(0.06172839506172839,0,0,0.06172839506172839,30.80246913580247,0)" xlink:href="#L"/><use transform="matrix(0.06172839506172839,0,0,0.06172839506172839,45.61728395061728,0)" xlink:href="#M"/></g><path fill="#363636" d="M205 0l-28-72H64L36 0H1l101-248h38L239 0h-34zm-38-99l-47-123c-12 45-31 82-46 123h93" id="N"/><path fill="#363636" d="M30-248c87 1 191-15 191 75 0 78-77 80-158 76V0H30v-248zm33 125c57 0 124 11 124-50 0-59-68-47-124-48v98" id="O"/><path fill="#363636" d="M33 0v-248h34V0H33" id="P"/><g id="h"><use transform="matrix(0.06172839506172839,0,0,0.06172839506172839,0,0)" xlink:href="#N"/><use transform="matrix(0.06172839506172839,0,0,0.06172839506172839,14.814814814814813,0)" xlink:href="#O"/><use transform="matrix(0.06172839506172839,0,0,0.06172839506172839,29.629629629629626,0)" xlink:href="#P"/></g><path fill="#363636" d="M30-248c118-7 216 8 213 122C240-48 200 0 122 0H30v-248zM63-27c89 8 146-16 146-99s-60-101-146-95v194" id="Q"/><path fill="#363636" d="M115-194c53 0 69 39 70 98 0 66-23 100-70 100C84 3 66-7 56-30L54 0H23l1-261h32v101c10-23 28-34 59-34zm-8 174c40 0 45-34 45-75 0-40-5-75-45-74-42 0-51 32-51 76 0 43 10 73 51 73" id="R"/><g id="i"><use transform="matrix(0.06172839506172839,0,0,0.06172839506172839,0,0)" xlink:href="#Q"/><use transform="matrix(0.06172839506172839,0,0,0.06172839506172839,15.987654320987653,0)" xlink:href="#F"/><use transform="matrix(0.06172839506172839,0,0,0.06172839506172839,28.333333333333332,0)" xlink:href="#A"/><use transform="matrix(0.06172839506172839,0,0,0.06172839506172839,34.50617283950617,0)" xlink:href="#F"/><use transform="matrix(0.06172839506172839,0,0,0.06172839506172839,46.85185185185185,0)" xlink:href="#R"/><use transform="matrix(0.06172839506172839,0,0,0.06172839506172839,59.197530864197525,0)" xlink:href="#F"/><use transform="matrix(0.06172839506172839,0,0,0.06172839506172839,71.5432098765432,0)" xlink:href="#y"/><use transform="matrix(0.06172839506172839,0,0,0.06172839506172839,82.65432098765432,0)" xlink:href="#v"/></g><path fill="#363636" d="M137 0h-34L2-248h35l83 218 83-218h36" id="S"/><path fill="#363636" d="M206 0h-36l-40-164L89 0H53L-1-190h32L70-26l43-164h34l41 164 42-164h31" id="T"/><path fill="#363636" d="M240 0l2-218c-23 76-54 145-80 218h-23L58-218 59 0H30v-248h44l77 211c21-75 51-140 76-211h43V0h-30" id="U"/><path fill="#363636" d="M85-194c31 0 48 13 60 33l-1-100h32l1 261h-30c-2-10 0-23-3-31C134-8 116 4 85 4 32 4 16-35 15-94c0-66 23-100 70-100zm9 24c-40 0-46 34-46 75 0 40 6 74 45 74 42 0 51-32 51-76 0-42-9-74-50-73" id="V"/><path fill="#363636" d="M24 0v-261h32V0H24" id="W"/><g id="j"><use transform="matrix(0.06172839506172839,0,0,0.06172839506172839,0,0)" xlink:href="#S"/><use transform="matrix(0.06172839506172839,0,0,0.06172839506172839,14.382716049382715,0)" xlink:href="#z"/><use transform="matrix(0.06172839506172839,0,0,0.06172839506172839,19.25925925925926,0)" xlink:href="#v"/><use transform="matrix(0.06172839506172839,0,0,0.06172839506172839,31.604938271604937,0)" xlink:href="#T"/><use transform="matrix(0.06172839506172839,0,0,0.06172839506172839,47.59259259259259,0)" xlink:href="#U"/><use transform="matrix(0.06172839506172839,0,0,0.06172839506172839,66.04938271604938,0)" xlink:href="#x"/><use transform="matrix(0.06172839506172839,0,0,0.06172839506172839,78.39506172839506,0)" xlink:href="#V"/><use transform="matrix(0.06172839506172839,0,0,0.06172839506172839,90.74074074074075,0)" xlink:href="#v"/><use transform="matrix(0.06172839506172839,0,0,0.06172839506172839,103.08641975308643,0)" xlink:href="#W"/></g><path fill="#363636" d="M63-220v92h138v28H63V0H30v-248h175v28H63" id="X"/><path fill="#363636" d="M177-190C167-65 218 103 67 71c-23-6-38-20-44-43l32-5c15 47 100 32 89-28v-30C133-14 115 1 83 1 29 1 15-40 15-95c0-56 16-97 71-98 29-1 48 16 59 35 1-10 0-23 2-32h30zM94-22c36 0 50-32 50-73 0-42-14-75-50-75-39 0-46 34-46 75s6 73 46 73" id="Y"/><path fill="#363636" d="M210-169c-67 3-38 105-44 169h-31v-121c0-29-5-50-35-48C34-165 62-65 56 0H25l-1-190h30c1 10-1 24 2 32 10-44 99-50 107 0 11-21 27-35 58-36 85-2 47 119 55 194h-31v-121c0-29-5-49-35-48" id="Z"/><path fill="#363636" d="M117-194c89-4 53 116 60 194h-32v-121c0-31-8-49-39-48C34-167 62-67 57 0H25l-1-190h30c1 10-1 24 2 32 11-22 29-35 61-36" id="aa"/><g id="k"><use transform="matrix(0.06172839506172839,0,0,0.06172839506172839,0,0)" xlink:href="#X"/><use transform="matrix(0.06172839506172839,0,0,0.06172839506172839,13.518518518518517,0)" xlink:href="#B"/><use transform="matrix(0.06172839506172839,0,0,0.06172839506172839,20.864197530864196,0)" xlink:href="#F"/><use transform="matrix(0.06172839506172839,0,0,0.06172839506172839,33.20987654320987,0)" xlink:href="#Y"/><use transform="matrix(0.06172839506172839,0,0,0.06172839506172839,45.55555555555555,0)" xlink:href="#Z"/><use transform="matrix(0.06172839506172839,0,0,0.06172839506172839,64.01234567901234,0)" xlink:href="#v"/><use transform="matrix(0.06172839506172839,0,0,0.06172839506172839,76.35802469135803,0)" xlink:href="#aa"/><use transform="matrix(0.06172839506172839,0,0,0.06172839506172839,88.70370370370371,0)" xlink:href="#A"/></g><path fill="#363636" d="M0 4l72-265h28L28 4H0" id="ab"/><use transform="matrix(0.06172839506172839,0,0,0.06172839506172839,0,0)" xlink:href="#ab" id="l"/><path fill="#363636" d="M153-248C145-148 188 4 80 4 36 3 13-21 6-62l32-5c4 25 16 42 43 43 27 0 39-20 39-49v-147H72v-28h81" id="ac"/><path fill="#363636" d="M96-169c-40 0-48 33-48 73s9 75 48 75c24 0 41-14 43-38l32 2c-6 37-31 61-74 61-59 0-76-41-82-99-10-93 101-131 147-64 4 7 5 14 7 22l-32 3c-4-21-16-35-41-35" id="ad"/><path fill="#363636" d="M143 0L79-87 56-68V0H24v-261h32v163l83-92h37l-77 82L181 0h-38" id="ae"/><g id="m"><use transform="matrix(0.06172839506172839,0,0,0.06172839506172839,0,0)" xlink:href="#ac"/><use transform="matrix(0.06172839506172839,0,0,0.06172839506172839,11.11111111111111,0)" xlink:href="#v"/><use transform="matrix(0.06172839506172839,0,0,0.06172839506172839,23.45679012345679,0)" xlink:href="#A"/><use transform="matrix(0.06172839506172839,0,0,0.06172839506172839,29.62962962962963,0)" xlink:href="#w"/><use transform="matrix(0.06172839506172839,0,0,0.06172839506172839,41.97530864197531,0)" xlink:href="#F"/><use transform="matrix(0.06172839506172839,0,0,0.06172839506172839,54.32098765432099,0)" xlink:href="#ad"/><use transform="matrix(0.06172839506172839,0,0,0.06172839506172839,65.4320987654321,0)" xlink:href="#ae"/></g><g id="n"><use transform="matrix(0.06172839506172839,0,0,0.06172839506172839,0,0)" xlink:href="#E"/><use transform="matrix(0.06172839506172839,0,0,0.06172839506172839,15.987654320987653,0)" xlink:href="#x"/><use transform="matrix(0.06172839506172839,0,0,0.06172839506172839,28.333333333333332,0)" xlink:href="#Z"/><use transform="matrix(0.06172839506172839,0,0,0.06172839506172839,46.79012345679012,0)" xlink:href="#w"/><use transform="matrix(0.06172839506172839,0,0,0.06172839506172839,59.1358024691358,0)" xlink:href="#x"/><use transform="matrix(0.06172839506172839,0,0,0.06172839506172839,71.48148148148148,0)" xlink:href="#y"/><use transform="matrix(0.06172839506172839,0,0,0.06172839506172839,82.5925925925926,0)" xlink:href="#v"/></g><g id="o"><use transform="matrix(0.06172839506172839,0,0,0.06172839506172839,0,0)" xlink:href="#L"/><use transform="matrix(0.06172839506172839,0,0,0.06172839506172839,14.814814814814813,0)" xlink:href="#ad"/><use transform="matrix(0.06172839506172839,0,0,0.06172839506172839,25.925925925925924,0)" xlink:href="#B"/><use transform="matrix(0.06172839506172839,0,0,0.06172839506172839,33.2716049382716,0)" xlink:href="#v"/><use transform="matrix(0.06172839506172839,0,0,0.06172839506172839,45.61728395061728,0)" xlink:href="#v"/><use transform="matrix(0.06172839506172839,0,0,0.06172839506172839,57.962962962962955,0)" xlink:href="#aa"/></g><g id="p"><use transform="matrix(0.06172839506172839,0,0,0.06172839506172839,0,0)" xlink:href="#Q"/><use transform="matrix(0.06172839506172839,0,0,0.06172839506172839,15.987654320987653,0)" xlink:href="#F"/><use transform="matrix(0.06172839506172839,0,0,0.06172839506172839,28.333333333333332,0)" xlink:href="#A"/><use transform="matrix(0.06172839506172839,0,0,0.06172839506172839,34.50617283950617,0)" xlink:href="#F"/></g><path fill="#363636" d="M30 0v-248h33v221h125V0H30" id="af"/><g id="q"><use transform="matrix(0.06172839506172839,0,0,0.06172839506172839,0,0)" xlink:href="#af"/><use transform="matrix(0.06172839506172839,0,0,0.06172839506172839,12.345679012345679,0)" xlink:href="#F"/><use transform="matrix(0.06172839506172839,0,0,0.06172839506172839,24.691358024691358,0)" xlink:href="#C"/><use transform="matrix(0.06172839506172839,0,0,0.06172839506172839,35.80246913580247,0)" xlink:href="#v"/><use transform="matrix(0.06172839506172839,0,0,0.06172839506172839,48.148148148148145,0)" xlink:href="#B"/></g><g id="r"><use transform="matrix(0.06172839506172839,0,0,0.06172839506172839,0,0)" xlink:href="#Q"/><use transform="matrix(0.06172839506172839,0,0,0.06172839506172839,15.987654320987653,0)" xlink:href="#x"/><use transform="matrix(0.06172839506172839,0,0,0.06172839506172839,28.333333333333332,0)" xlink:href="#Z"/><use transform="matrix(0.06172839506172839,0,0,0.06172839506172839,46.79012345679012,0)" xlink:href="#F"/><use transform="matrix(0.06172839506172839,0,0,0.06172839506172839,59.1358024691358,0)" xlink:href="#z"/><use transform="matrix(0.06172839506172839,0,0,0.06172839506172839,64.01234567901234,0)" xlink:href="#aa"/></g><g id="s"><use transform="matrix(0.06172839506172839,0,0,0.06172839506172839,0,0)" xlink:href="#D"/><use transform="matrix(0.06172839506172839,0,0,0.06172839506172839,15.987654320987653,0)" xlink:href="#P"/></g><g id="t"><use transform="matrix(0.06172839506172839,0,0,0.06172839506172839,0,0)" xlink:href="#O"/><use transform="matrix(0.06172839506172839,0,0,0.06172839506172839,14.814814814814813,0)" xlink:href="#B"/><use transform="matrix(0.06172839506172839,0,0,0.06172839506172839,22.160493827160494,0)" xlink:href="#v"/><use transform="matrix(0.06172839506172839,0,0,0.06172839506172839,34.50617283950617,0)" xlink:href="#y"/><use transform="matrix(0.06172839506172839,0,0,0.06172839506172839,45.61728395061728,0)" xlink:href="#v"/><use transform="matrix(0.06172839506172839,0,0,0.06172839506172839,57.962962962962955,0)" xlink:href="#aa"/><use transform="matrix(0.06172839506172839,0,0,0.06172839506172839,70.30864197530863,0)" xlink:href="#A"/><use transform="matrix(0.06172839506172839,0,0,0.06172839506172839,76.48148148148147,0)" xlink:href="#F"/><use transform="matrix(0.06172839506172839,0,0,0.06172839506172839,88.82716049382715,0)" xlink:href="#A"/><use transform="matrix(0.06172839506172839,0,0,0.06172839506172839,94.99999999999999,0)" xlink:href="#z"/><use transform="matrix(0.06172839506172839,0,0,0.06172839506172839,99.87654320987653,0)" xlink:href="#x"/><use transform="matrix(0.06172839506172839,0,0,0.06172839506172839,112.22222222222221,0)" xlink:href="#aa"/></g></defs></g></svg>